<?xml version="1.0" encoding="iso-8859-1"?>
<!-- Generator: Adobe Illustrator 19.0.0, SVG Export Plug-In . SVG Version: 6.00 Build 0)  -->
<svg version="1.1" id="Layer_1" xmlns="http://www.w3.org/2000/svg" xmlns:xlink="http://www.w3.org/1999/xlink" x="0px" y="0px"
	 viewBox="0 0 512 512" style="enable-background:new 0 0 512 512;" xml:space="preserve">
<path style="fill:#28D2E4;" d="M433.749,301.424H78.421c-16.686,0-25.789-19.522-15.121-32.307
	c22.674-27.177,56.617-49.076,96.634-62.564V19.692C159.934,8.817,168.751,0,179.626,0h152.917c10.875,0,19.692,8.817,19.692,19.692
	v186.86c40.017,13.488,73.96,35.387,96.634,62.564C459.559,281.928,450.401,301.424,433.749,301.424z"/>
<path style="fill:#28C3E4;" d="M448.87,269.116c-22.674-27.177-56.617-49.076-96.634-62.564V19.692
	C352.236,8.817,343.419,0,332.544,0H256v301.424h177.749C450.401,301.424,459.559,281.93,448.87,269.116z"/>
<path style="fill:#FFDB77;" d="M448.886,269.136c-0.005-0.007-0.01-0.013-0.016-0.02c-0.003-0.003-0.005-0.007-0.008-0.009
	c-0.001-0.003-0.004-0.004-0.005-0.007c-0.001-0.003-0.004-0.004-0.005-0.007c-2.002-2.399-4.122-4.741-6.296-7.055
	c-17.429,0-352.779,0-372.94,0c-2.174,2.315-4.294,4.657-6.296,7.055c-0.001,0.003-0.004,0.004-0.005,0.007
	s-0.004,0.004-0.005,0.007c-0.003,0.004-0.005,0.007-0.008,0.009c-0.005,0.007-0.011,0.013-0.016,0.02
	C-24.894,374.667,79.286,512,256.085,512C435.159,512,535.905,373.281,448.886,269.136z"/>
<path style="fill:#FF905E;" d="M448.886,269.136c-0.005-0.007-0.01-0.013-0.016-0.02c-0.003-0.003-0.005-0.007-0.008-0.009
	c-0.001-0.003-0.004-0.004-0.005-0.007c-0.001-0.003-0.004-0.004-0.005-0.007c-2.002-2.399-4.122-4.741-6.296-7.055
	c-8.751,0-97.648,0-186.554,0v249.96c0.029,0,0.056,0.001,0.085,0.001C435.159,512,535.905,373.281,448.886,269.136z"/>
<g>
	<path style="fill:#28C3E4;" d="M159.933,98.038h52.391c10.875,0,19.692-8.817,19.692-19.692s-8.817-19.692-19.692-19.692h-52.391
		L159.933,98.038L159.933,98.038z"/>
	<path style="fill:#28C3E4;" d="M159.933,156.686h52.391c10.875,0,19.692-8.817,19.692-19.692s-8.817-19.692-19.692-19.692h-52.391
		L159.933,156.686L159.933,156.686z"/>
	<path style="fill:#28C3E4;" d="M367.604,39.387H144.565c-10.875,0-19.692-8.817-19.692-19.692s8.817-19.692,19.692-19.692h223.04
		c10.875,0,19.692,8.817,19.692,19.692C387.296,30.572,378.48,39.387,367.604,39.387z"/>
</g>
<circle style="fill:#FF905E;" cx="208.961" cy="377.252" r="17.067"/>
<path style="fill:#28B6E4;" d="M367.604,0.003H256v39.385h111.604c10.875,0,19.692-8.817,19.692-19.692S378.48,0.003,367.604,0.003z
	"/>
<circle style="fill:#DC554F;" cx="300.281" cy="377.252" r="33.122"/>
<g>
</g>
<g>
</g>
<g>
</g>
<g>
</g>
<g>
</g>
<g>
</g>
<g>
</g>
<g>
</g>
<g>
</g>
<g>
</g>
<g>
</g>
<g>
</g>
<g>
</g>
<g>
</g>
<g>
</g>
</svg>
