<?xml version="1.0" encoding="iso-8859-1"?>
<!-- Generator: Adobe Illustrator 19.0.0, SVG Export Plug-In . SVG Version: 6.00 Build 0)  -->
<svg version="1.1" id="Layer_1" xmlns="http://www.w3.org/2000/svg" xmlns:xlink="http://www.w3.org/1999/xlink" x="0px" y="0px"
	 viewBox="0 0 392.533 392.533" style="enable-background:new 0 0 392.533 392.533;" xml:space="preserve">
<path style="fill:#FFFFFF;" d="M294.756,348.703c29.931,0,54.238-22.238,54.238-49.519c0-24.63-20.17-45.64-46.933-49.002
	c-5.301-0.711-9.438-5.172-9.568-10.602c-2.844-120.113-46.028-217.729-96.259-217.729C148.784,24.178,112,106.085,99.976,239.58
	c-0.129,5.43-4.202,9.891-9.568,10.602c-26.634,3.297-46.804,24.372-46.804,49.002c0,27.345,24.242,49.519,54.174,49.519"/>
<path style="fill:#FFC10D;" d="M299.41,271.774l-28.057-3.491l-0.711-28.186c-2.844-119.919-45.964-196.525-74.408-196.525
	c-22.109,0-53.075,46.222-67.168,123.022h33.875c6.012,0,10.925,4.848,10.925,10.925c0,6.012-4.848,10.925-10.925,10.925h-37.236
	c-0.905,7.046-1.681,14.287-2.327,21.786h16.032c6.012,0,10.925,4.848,10.925,10.925c0,6.012-4.848,10.925-10.925,10.925h-17.325
	c-0.065,2.651-0.259,5.301-0.323,8.016l-0.711,28.186l-28.057,3.491c-15.774,1.939-27.669,13.705-27.669,27.345
	c0,15.321,14.545,27.733,32.388,27.733h196.913c17.842,0,32.453-12.412,32.453-27.733
	C327.143,285.543,315.248,273.713,299.41,271.774z"/>
<g>
	<path style="fill:#194F82;" d="M314.085,230.206C308.784,98.392,258.877,0,196.234,0S83.62,98.392,78.448,230.206
		c-32.84,8.081-56.63,36.331-56.63,68.913c0,39.305,34.069,71.37,75.96,71.37c6.012,0,10.925-4.848,10.925-10.925
		s-4.848-10.925-10.925-10.925c-29.802,0-54.174-22.238-54.174-49.519c0-24.63,20.105-45.64,46.804-49.002
		c5.301-0.711,9.438-5.172,9.568-10.602C112,105.891,148.719,23.984,196.17,21.657c50.23,0,93.414,97.681,96.259,217.729
		c0.129,5.43,4.202,9.891,9.568,10.602c26.764,3.297,46.933,24.372,46.933,49.002c0,27.345-24.372,49.519-54.238,49.519
		c-6.012,0-10.925,4.848-10.925,10.925c0,6.012,4.848,10.925,10.925,10.925c41.956,0,76.024-32,76.024-71.37
		C370.78,266.537,346.99,238.287,314.085,230.206z"/>
	<path style="fill:#194F82;" d="M294.885,313.859c1.939-5.689-1.099-11.895-6.723-13.834c-0.323-0.065-7.628-2.65-17.907-4.267
		c-19.265-1.552-33.552,8.792-37.042,28.186c-4.008,30.966-16.485,46.739-36.913,46.739s-32.905-15.709-36.913-46.739
		c-2.263-18.877-19.717-30.513-37.042-28.186c-10.279,1.616-17.648,4.202-17.907,4.267c-5.689,1.939-8.727,8.21-6.723,13.834
		c1.939,5.689,8.21,8.727,13.834,6.723c0.065,0,5.947-2.004,14.222-3.297c5.43-1.552,11.119,3.814,11.96,9.503
		c5.43,41.826,26.764,65.745,58.57,65.745s53.139-23.984,58.57-65.745c1.551-6.465,5.301-9.956,11.96-9.503
		c8.275,1.293,14.222,3.297,14.287,3.297C286.739,322.586,292.945,319.612,294.885,313.859z"/>
</g>
<g>
</g>
<g>
</g>
<g>
</g>
<g>
</g>
<g>
</g>
<g>
</g>
<g>
</g>
<g>
</g>
<g>
</g>
<g>
</g>
<g>
</g>
<g>
</g>
<g>
</g>
<g>
</g>
<g>
</g>
</svg>
