<?xml version="1.0" encoding="iso-8859-1"?>
<!-- Generator: Adobe Illustrator 19.0.0, SVG Export Plug-In . SVG Version: 6.00 Build 0)  -->
<svg version="1.1" id="Layer_1" xmlns="http://www.w3.org/2000/svg" xmlns:xlink="http://www.w3.org/1999/xlink" x="0px" y="0px"
	 viewBox="0 0 233.91 233.91" style="enable-background:new 0 0 233.91 233.91;" xml:space="preserve">
<g>
	<g>
		<g>
			<path d="M87.148,160.052c-26.111,0-50.389,12.964-64.946,34.681l-1.509,2.249l1.509,2.249
				C36.76,220.946,61.04,233.91,87.148,233.91c26.111,0,50.391-12.964,64.946-34.679l1.509-2.249l-1.509-2.249
				C137.538,173.015,113.26,160.052,87.148,160.052z M87.148,225.829c-22.495,0-43.474-10.732-56.662-28.847
				c13.189-18.117,34.168-28.849,56.662-28.849c22.497,0,43.476,10.734,56.662,28.849
				C130.623,215.096,109.644,225.829,87.148,225.829z"/>
			<path d="M86.883,176.213c-11.537,0-20.922,9.385-20.922,20.922c0,11.535,9.385,20.92,20.922,20.92
				c11.535,0,20.92-9.385,20.92-20.92C107.804,185.598,98.419,176.213,86.883,176.213z M86.883,209.975
				c-7.08,0-12.841-5.759-12.841-12.839s5.761-12.841,12.841-12.841c7.08,0,12.839,5.761,12.839,12.841
				S93.964,209.975,86.883,209.975z"/>
			<path d="M51.82,156.011c12.253,0,22.222-9.787,22.222-21.818c0-11.024-16.223-26.618-19.476-29.63l-2.746-2.545l-2.746,2.545
				c-3.253,3.013-19.476,18.606-19.476,29.63C29.598,146.224,39.566,156.011,51.82,156.011z M51.82,113.157
				c6.585,6.664,14.141,16.189,14.141,21.036c0,7.574-6.345,13.737-14.141,13.737s-14.141-6.163-14.141-13.737
				C37.678,129.346,45.234,119.821,51.82,113.157z"/>
			<path d="M76.153,99.635c0.732,0,1.472-0.197,2.137-0.614l47.773-29.851l5.445,8.716l0.035-0.022l4.445,7.114
				c0.767,1.227,2.083,1.9,3.431,1.9c0.732,0,1.472-0.197,2.137-0.614c1.892-1.184,2.468-3.676,1.286-5.567l-4.446-7.115
				l74.821-46.753L196.454,0L121.63,46.753l-3.757-6.013c-1.182-1.892-3.674-2.468-5.567-1.286
				c-1.892,1.184-2.468,3.676-1.286,5.567l3.758,6.014l-0.033,0.021l7.036,11.262l-47.772,29.85
				c-1.892,1.184-2.468,3.676-1.286,5.567C73.49,98.962,74.806,99.635,76.153,99.635z M193.881,11.135l8.201,13.123L134.114,66.73
				l-8.201-13.124L193.881,11.135z"/>
		</g>
	</g>
</g>
<g>
</g>
<g>
</g>
<g>
</g>
<g>
</g>
<g>
</g>
<g>
</g>
<g>
</g>
<g>
</g>
<g>
</g>
<g>
</g>
<g>
</g>
<g>
</g>
<g>
</g>
<g>
</g>
<g>
</g>
</svg>
