<?xml version="1.0" encoding="iso-8859-1"?>
<!-- Generator: Adobe Illustrator 19.0.0, SVG Export Plug-In . SVG Version: 6.00 Build 0)  -->
<svg version="1.1" id="Layer_1" xmlns="http://www.w3.org/2000/svg" xmlns:xlink="http://www.w3.org/1999/xlink" x="0px" y="0px"
	 viewBox="0 0 511.504 511.504" style="enable-background:new 0 0 511.504 511.504;" xml:space="preserve">
<g transform="translate(-1)">
	<path style="fill:#C03A2B;" d="M342.085,502.022c125.042,0,151.704-37.926,151.704-37.926
		c-102.523,4.741-56.889-85.333-56.889-85.333c72.884-130.37,18.963-274.963,18.963-274.963
		C410.826-43.163,256.752,8.985,256.752,8.985S102.678-43.163,57.641,103.8c0,0-53.921,144.593,18.963,274.963
		c0,0,45.634,90.074-56.889,85.333c0,0,26.671,37.926,151.704,37.926"/>
	<path style="fill:#DBB38D;" d="M342.344,511.504v-66.332c-8.998,6.362-18.252,12.383-27.354,18.555
		c-18.328,12.43-34.484,28.814-58.235,28.814c-23.751,0-39.908-16.384-58.235-28.814c-8.932-6.059-18.005-11.966-26.842-18.195
		v65.972"/>
	<path style="fill:#FDD7AD;" d="M408.456,264.985c0-24.633-11.416-46.658-30.986-61.62l-117.21-96.673
		c-2.039-1.678-4.978-1.678-7.016,0l-117.21,96.673c-19.57,14.962-30.985,36.987-30.985,61.62c0,59.496,4.674,126.123,49.55,168.723
		c9.074,8.619,19.172,15.967,29.193,23.419c6.969,5.186,14.355,9.737,21.675,14.412c19.74,12.572,26.453,30.483,51.285,30.483
		c23.751,0,30.426-16.384,48.754-28.814c18.328-12.43,46.772-24.206,62.881-39.5C413.263,391.108,408.456,324.482,408.456,264.985"
		/>
</g>
<g>
</g>
<g>
</g>
<g>
</g>
<g>
</g>
<g>
</g>
<g>
</g>
<g>
</g>
<g>
</g>
<g>
</g>
<g>
</g>
<g>
</g>
<g>
</g>
<g>
</g>
<g>
</g>
<g>
</g>
</svg>
